<?xml version="1.0" encoding="UTF-8"?>
<svg xmlns="http://www.w3.org/2000/svg" xmlns:xlink="http://www.w3.org/1999/xlink" width="26px" height="30px" viewBox="0 0 26 29" version="1.1">
<g id="surface1">
<path style=" stroke:none;fill-rule:nonzero;fill:rgb(0%,0%,0%);fill-opacity:1;" d="M 25.574219 10.316406 L 25.988281 8.050781 C 26.066406 7.632812 25.738281 7.25 25.304688 7.25 L 20.960938 7.25 L 21.808594 2.613281 C 21.886719 2.195312 21.558594 1.8125 21.125 1.8125 L 18.765625 1.8125 C 18.429688 1.8125 18.140625 2.046875 18.082031 2.371094 L 17.1875 7.25 L 11.464844 7.25 L 12.3125 2.613281 C 12.390625 2.195312 12.0625 1.8125 11.628906 1.8125 L 9.269531 1.8125 C 8.933594 1.8125 8.644531 2.046875 8.582031 2.371094 L 7.691406 7.25 L 3.101562 7.25 C 2.761719 7.25 2.476562 7.484375 2.414062 7.808594 L 2 10.074219 C 1.925781 10.492188 2.253906 10.875 2.6875 10.875 L 7.027344 10.875 L 5.703125 18.125 L 1.109375 18.125 C 0.773438 18.125 0.484375 18.359375 0.425781 18.683594 L 0.0117188 20.949219 C -0.0664062 21.367188 0.261719 21.75 0.695312 21.75 L 5.039062 21.75 L 4.191406 26.386719 C 4.113281 26.804688 4.441406 27.1875 4.875 27.1875 L 7.234375 27.1875 C 7.570312 27.1875 7.859375 26.953125 7.917969 26.628906 L 8.8125 21.75 L 14.535156 21.75 L 13.6875 26.386719 C 13.609375 26.804688 13.9375 27.1875 14.371094 27.1875 L 16.730469 27.1875 C 17.066406 27.1875 17.355469 26.953125 17.417969 26.628906 L 18.308594 21.75 L 22.898438 21.75 C 23.238281 21.75 23.523438 21.515625 23.585938 21.191406 L 24 18.925781 C 24.074219 18.507812 23.746094 18.125 23.3125 18.125 L 18.972656 18.125 L 20.296875 10.875 L 24.890625 10.875 C 25.226562 10.875 25.515625 10.640625 25.574219 10.316406 Z M 15.199219 18.125 L 9.476562 18.125 L 10.800781 10.875 L 16.527344 10.875 Z M 15.199219 18.125 "/>
</g>
</svg>
