<svg xmlns="http://www.w3.org/2000/svg" width="224.88" viewBox="0 0 224.88 225" height="225" version="1.0"><defs><clipPath id="a"><path d="M 0 0.0585938 L 224 0.0585938 L 224 224 L 0 224 Z M 0 0.0585938"/></clipPath></defs><g clip-path="url(#a)"><path d="M 217.160156 0.0585938 L 0.40625 0.0585938 L 0.40625 223.441406 L 223.785156 223.441406 L 223.785156 0.0585938 L 217.160156 0.0585938 M 217.160156 216.8125 L 7.105469 216.8125 L 7.105469 6.761719 L 217.160156 6.761719 L 217.160156 216.8125"/></g><g><g><g><path d="M 11.421875 0 L 11.421875 -36.984375 L 3.261719 -36.984375 L 3.261719 0 Z M 11.421875 0" transform="translate(54.91 92.354)"/></g></g></g><g><g><g><path d="M 11.3125 -7.507812 L 11.3125 -29.425781 L 13.761719 -29.425781 C 20.070312 -29.425781 24.3125 -24.640625 24.3125 -18.492188 C 24.3125 -12.347656 20.015625 -7.507812 13.761719 -7.507812 Z M 3.261719 -36.984375 L 3.261719 0 L 14.25 0 C 24.746094 0 32.632812 -8.050781 32.632812 -18.492188 C 32.632812 -28.9375 24.695312 -36.984375 14.25 -36.984375 Z M 3.261719 -36.984375" transform="translate(69.595 92.354)"/></g></g></g><g><g><g><path d="M 24.695312 -7.398438 L 11.421875 -7.398438 L 11.421875 -14.847656 L 24.148438 -14.847656 L 24.148438 -22.246094 L 11.421875 -22.246094 L 11.421875 -29.589844 L 24.695312 -29.589844 L 24.695312 -36.984375 L 3.261719 -36.984375 L 3.261719 0 L 24.695312 0 Z M 24.695312 -7.398438" transform="translate(104.133 92.354)"/></g></g></g><g><g><g><path d="M 23.386719 -14.140625 L 14.03125 -14.140625 L 18.710938 -27.304688 Z M 37.203125 0 L 22.191406 -36.984375 L 15.285156 -36.984375 L 0.273438 0 L 9.027344 0 L 11.695312 -7.453125 L 25.78125 -7.453125 L 28.445312 0 Z M 37.203125 0" transform="translate(132.09 92.354)"/></g></g></g><g><g><g><path d="M 23.386719 -14.140625 L 14.03125 -14.140625 L 18.710938 -27.304688 Z M 37.203125 0 L 22.191406 -36.984375 L 15.285156 -36.984375 L 0.273438 0 L 9.027344 0 L 11.695312 -7.453125 L 25.78125 -7.453125 L 28.445312 0 Z M 37.203125 0" transform="translate(2.04 146.227)"/></g></g></g><g><g><g><path d="M 21.757812 -29.914062 C 25.347656 -29.914062 29.042969 -28.445312 30.839844 -24.53125 L 39.8125 -24.53125 C 37.257812 -32.199219 29.914062 -37.53125 21.757812 -37.53125 C 11.3125 -37.53125 2.71875 -28.9375 2.71875 -18.492188 C 2.71875 -8.050781 11.3125 0.542969 21.757812 0.542969 C 32.308594 0.542969 40.738281 -7.996094 40.738281 -18.492188 L 40.738281 -19.742188 L 22.519531 -19.742188 L 22.519531 -13.597656 L 31.925781 -13.597656 C 29.914062 -7.996094 25.347656 -6.851562 21.757812 -6.851562 C 15.882812 -6.851562 10.988281 -12.128906 10.988281 -18.382812 C 10.988281 -24.640625 15.882812 -29.914062 21.757812 -29.914062 Z M 21.757812 -29.914062" transform="translate(39.515 146.227)"/></g></g></g><g><g><g><path d="M 24.695312 -7.398438 L 11.421875 -7.398438 L 11.421875 -14.847656 L 24.148438 -14.847656 L 24.148438 -22.246094 L 11.421875 -22.246094 L 11.421875 -29.589844 L 24.695312 -29.589844 L 24.695312 -36.984375 L 3.261719 -36.984375 L 3.261719 0 L 24.695312 0 Z M 24.695312 -7.398438" transform="translate(82.158 146.227)"/></g></g></g><g><g><g><path d="M 32.308594 0 L 32.308594 -36.984375 L 24.148438 -36.984375 L 24.148438 -13.925781 L 11.421875 -36.984375 L 3.261719 -36.984375 L 3.261719 0 L 11.421875 0 L 11.421875 -23.0625 L 24.148438 0 Z M 32.308594 0" transform="translate(110.115 146.227)"/></g></g></g><g><g><g><path d="M 29.96875 -12.5625 C 28.445312 -9.300781 24.746094 -7.070312 20.941406 -7.070312 C 14.957031 -7.070312 10.171875 -12.183594 10.171875 -18.492188 C 10.171875 -24.746094 14.957031 -29.914062 20.941406 -29.914062 C 24.695312 -29.914062 28.390625 -27.847656 29.914062 -24.53125 L 39 -24.53125 C 36.496094 -32.089844 29.371094 -37.53125 20.941406 -37.53125 C 10.441406 -37.53125 1.902344 -28.992188 1.902344 -18.492188 C 1.902344 -7.996094 10.441406 0.542969 20.941406 0.542969 C 29.371094 0.542969 36.550781 -4.949219 39.054688 -12.5625 Z M 29.96875 -12.5625" transform="translate(145.687 146.227)"/></g></g></g><g><g><g><path d="M 14.085938 0 L 22.246094 0 L 22.246094 -17.675781 L 35.898438 -36.984375 L 26.164062 -36.984375 L 18.167969 -24.203125 L 10.171875 -36.984375 L 0.433594 -36.984375 L 14.085938 -17.675781 Z M 14.085938 0" transform="translate(186.1 146.227)"/></g></g></g><g><g><g><path d="M 4.175781 -1.367188 C 3.222656 -1.367188 2.398438 -1.84375 2.34375 -2.886719 L 0.386719 -2.886719 C 0.398438 -0.746094 2.164062 0.207031 4.097656 0.207031 C 5.890625 0.207031 7.734375 -0.554688 7.734375 -2.617188 C 7.734375 -5.953125 2.667969 -4.832031 2.667969 -6.390625 C 2.667969 -7.050781 3.429688 -7.308594 3.96875 -7.308594 C 4.9375 -7.308594 5.464844 -7.011719 5.566406 -6.097656 L 7.4375 -6.097656 C 7.371094 -8.09375 5.75 -8.894531 3.945312 -8.894531 C 2.34375 -8.894531 0.671875 -8.042969 0.671875 -6.238281 C 0.671875 -3.003906 5.734375 -4.097656 5.734375 -2.398438 C 5.734375 -1.609375 4.78125 -1.367188 4.175781 -1.367188 Z M 4.175781 -1.367188" transform="translate(40.713 172.462)"/></g></g></g><g><g><g><path d="M 7.539062 -4.394531 C 7.539062 -3.042969 6.316406 -1.804688 4.960938 -1.804688 C 3.609375 -1.804688 2.382812 -3.042969 2.382812 -4.394531 C 2.382812 -5.75 3.609375 -6.972656 4.960938 -6.972656 C 6.316406 -6.972656 7.539062 -5.75 7.539062 -4.394531 Z M 9.472656 -4.382812 C 9.472656 -6.804688 7.386719 -8.894531 4.960938 -8.894531 C 2.539062 -8.894531 0.449219 -6.804688 0.449219 -4.382812 C 0.449219 -1.960938 2.539062 0.128906 4.960938 0.128906 C 7.386719 0.128906 9.472656 -1.960938 9.472656 -4.382812 Z M 9.472656 -4.382812" transform="translate(48.831 172.462)"/></g></g></g><g><g><g><path d="M 7.101562 -2.976562 C 6.742188 -2.203125 5.863281 -1.675781 4.960938 -1.675781 C 3.542969 -1.675781 2.410156 -2.886719 2.410156 -4.382812 C 2.410156 -5.863281 3.542969 -7.089844 4.960938 -7.089844 C 5.851562 -7.089844 6.726562 -6.597656 7.089844 -5.8125 L 9.242188 -5.8125 C 8.648438 -7.605469 6.960938 -8.894531 4.960938 -8.894531 C 2.472656 -8.894531 0.449219 -6.871094 0.449219 -4.382812 C 0.449219 -1.894531 2.472656 0.128906 4.960938 0.128906 C 6.960938 0.128906 8.660156 -1.171875 9.253906 -2.976562 Z M 7.101562 -2.976562" transform="translate(58.753 172.462)"/></g></g></g><g><g><g><path d="M 2.707031 0 L 2.707031 -8.765625 L 0.773438 -8.765625 L 0.773438 0 Z M 2.707031 0" transform="translate(68.327 172.462)"/></g></g></g><g><g><g><path d="M 5.542969 -3.351562 L 3.324219 -3.351562 L 4.433594 -6.46875 Z M 8.816406 0 L 5.257812 -8.765625 L 3.621094 -8.765625 L 0.0625 0 L 2.140625 0 L 2.769531 -1.765625 L 6.109375 -1.765625 L 6.742188 0 Z M 8.816406 0" transform="translate(71.806 172.462)"/></g></g></g><g><g><g><path d="M 0.773438 0 L 5.851562 0 L 5.851562 -1.753906 L 2.707031 -1.753906 L 2.707031 -8.765625 L 0.773438 -8.765625 Z M 0.773438 0" transform="translate(80.684 172.462)"/></g></g></g><g><g><g><path d="M 11.703125 0 L 10 -8.765625 L 7.707031 -8.765625 L 5.890625 -2.617188 L 4.058594 -8.765625 L 1.765625 -8.765625 L 0.0625 0 L 2.191406 0 L 3.222656 -6.042969 L 4.9375 0 L 6.832031 0 L 8.542969 -6.042969 L 9.574219 0 Z M 11.703125 0" transform="translate(90.207 172.462)"/></g></g></g><g><g><g><path d="M 5.851562 -1.753906 L 2.707031 -1.753906 L 2.707031 -3.519531 L 5.722656 -3.519531 L 5.722656 -5.269531 L 2.707031 -5.269531 L 2.707031 -7.011719 L 5.851562 -7.011719 L 5.851562 -8.765625 L 0.773438 -8.765625 L 0.773438 0 L 5.851562 0 Z M 5.851562 -1.753906" transform="translate(101.971 172.462)"/></g></g></g><g><g><g><path d="M 2.679688 -1.777344 L 2.679688 -6.972656 L 3.261719 -6.972656 C 4.753906 -6.972656 5.761719 -5.839844 5.761719 -4.382812 C 5.761719 -2.925781 4.742188 -1.777344 3.261719 -1.777344 Z M 0.773438 -8.765625 L 0.773438 0 L 3.375 0 C 5.863281 0 7.734375 -1.90625 7.734375 -4.382812 C 7.734375 -6.855469 5.851562 -8.765625 3.375 -8.765625 Z M 0.773438 -8.765625" transform="translate(108.595 172.462)"/></g></g></g><g><g><g><path d="M 2.707031 0 L 2.707031 -8.765625 L 0.773438 -8.765625 L 0.773438 0 Z M 2.707031 0" transform="translate(116.777 172.462)"/></g></g></g><g><g><g><path d="M 5.542969 -3.351562 L 3.324219 -3.351562 L 4.433594 -6.46875 Z M 8.816406 0 L 5.257812 -8.765625 L 3.621094 -8.765625 L 0.0625 0 L 2.140625 0 L 2.769531 -1.765625 L 6.109375 -1.765625 L 6.742188 0 Z M 8.816406 0" transform="translate(120.256 172.462)"/></g></g></g><g><g><g><path d="M 5.542969 -3.351562 L 3.324219 -3.351562 L 4.433594 -6.46875 Z M 8.816406 0 L 5.257812 -8.765625 L 3.621094 -8.765625 L 0.0625 0 L 2.140625 0 L 2.769531 -1.765625 L 6.109375 -1.765625 L 6.742188 0 Z M 8.816406 0" transform="translate(132.355 172.462)"/></g></g></g><g><g><g><path d="M 5.15625 -7.089844 C 6.007812 -7.089844 6.882812 -6.742188 7.308594 -5.8125 L 9.433594 -5.8125 C 8.828125 -7.628906 7.089844 -8.894531 5.15625 -8.894531 C 2.679688 -8.894531 0.644531 -6.855469 0.644531 -4.382812 C 0.644531 -1.90625 2.679688 0.128906 5.15625 0.128906 C 7.65625 0.128906 9.652344 -1.894531 9.652344 -4.382812 L 9.652344 -4.679688 L 5.335938 -4.679688 L 5.335938 -3.222656 L 7.566406 -3.222656 C 7.089844 -1.894531 6.007812 -1.625 5.15625 -1.625 C 3.761719 -1.625 2.601562 -2.875 2.601562 -4.355469 C 2.601562 -5.839844 3.761719 -7.089844 5.15625 -7.089844 Z M 5.15625 -7.089844" transform="translate(141.234 172.462)"/></g></g></g><g><g><g><path d="M 5.851562 -1.753906 L 2.707031 -1.753906 L 2.707031 -3.519531 L 5.722656 -3.519531 L 5.722656 -5.269531 L 2.707031 -5.269531 L 2.707031 -7.011719 L 5.851562 -7.011719 L 5.851562 -8.765625 L 0.773438 -8.765625 L 0.773438 0 L 5.851562 0 Z M 5.851562 -1.753906" transform="translate(151.336 172.462)"/></g></g></g><g><g><g><path d="M 7.65625 0 L 7.65625 -8.765625 L 5.722656 -8.765625 L 5.722656 -3.300781 L 2.707031 -8.765625 L 0.773438 -8.765625 L 0.773438 0 L 2.707031 0 L 2.707031 -5.464844 L 5.722656 0 Z M 7.65625 0" transform="translate(157.959 172.462)"/></g></g></g><g><g><g><path d="M 7.101562 -2.976562 C 6.742188 -2.203125 5.863281 -1.675781 4.960938 -1.675781 C 3.542969 -1.675781 2.410156 -2.886719 2.410156 -4.382812 C 2.410156 -5.863281 3.542969 -7.089844 4.960938 -7.089844 C 5.851562 -7.089844 6.726562 -6.597656 7.089844 -5.8125 L 9.242188 -5.8125 C 8.648438 -7.605469 6.960938 -8.894531 4.960938 -8.894531 C 2.472656 -8.894531 0.449219 -6.871094 0.449219 -4.382812 C 0.449219 -1.894531 2.472656 0.128906 4.960938 0.128906 C 6.960938 0.128906 8.660156 -1.171875 9.253906 -2.976562 Z M 7.101562 -2.976562" transform="translate(166.386 172.462)"/></g></g></g><g><g><g><path d="M 3.339844 0 L 5.269531 0 L 5.269531 -4.1875 L 8.507812 -8.765625 L 6.199219 -8.765625 L 4.304688 -5.734375 L 2.410156 -8.765625 L 0.101562 -8.765625 L 3.339844 -4.1875 Z M 3.339844 0" transform="translate(175.96 172.462)"/></g></g></g></svg>