<svg xmlns="http://www.w3.org/2000/svg" width="54" viewBox="0 0 54 54" height="54" version="1.0"><g><g><g><path d="M 2.691406 0 L 2.691406 -8.71875 L 0.769531 -8.71875 L 0.769531 0 Z M 2.691406 0" transform="translate(13.436 21.76)"/></g></g></g><g><g><g><path d="M 2.667969 -1.769531 L 2.667969 -6.9375 L 3.246094 -6.9375 C 4.730469 -6.9375 5.730469 -5.808594 5.730469 -4.359375 C 5.730469 -2.910156 4.71875 -1.769531 3.246094 -1.769531 Z M 0.769531 -8.71875 L 0.769531 0 L 3.359375 0 C 5.835938 0 7.695312 -1.898438 7.695312 -4.359375 C 7.695312 -6.820312 5.820312 -8.71875 3.359375 -8.71875 Z M 0.769531 -8.71875" transform="translate(16.899 21.76)"/></g></g></g><g><g><g><path d="M 5.820312 -1.742188 L 2.691406 -1.742188 L 2.691406 -3.5 L 5.695312 -3.5 L 5.695312 -5.246094 L 2.691406 -5.246094 L 2.691406 -6.976562 L 5.820312 -6.976562 L 5.820312 -8.71875 L 0.769531 -8.71875 L 0.769531 0 L 5.820312 0 Z M 5.820312 -1.742188" transform="translate(25.042 21.76)"/></g></g></g><g><g><g><path d="M 5.515625 -3.335938 L 3.308594 -3.335938 L 4.410156 -6.4375 Z M 8.769531 0 L 5.230469 -8.71875 L 3.601562 -8.71875 L 0.0625 0 L 2.128906 0 L 2.757812 -1.757812 L 6.078125 -1.757812 L 6.707031 0 Z M 8.769531 0" transform="translate(31.633 21.76)"/></g></g></g><g><g><g><path d="M 5.515625 -3.335938 L 3.308594 -3.335938 L 4.410156 -6.4375 Z M 8.769531 0 L 5.230469 -8.71875 L 3.601562 -8.71875 L 0.0625 0 L 2.128906 0 L 2.757812 -1.757812 L 6.078125 -1.757812 L 6.707031 0 Z M 8.769531 0" transform="translate(.972 34.46)"/></g></g></g><g><g><g><path d="M 5.128906 -7.054688 C 5.976562 -7.054688 6.847656 -6.707031 7.269531 -5.785156 L 9.386719 -5.785156 C 8.785156 -7.589844 7.054688 -8.847656 5.128906 -8.847656 C 2.667969 -8.847656 0.640625 -6.820312 0.640625 -4.359375 C 0.640625 -1.898438 2.667969 0.128906 5.128906 0.128906 C 7.617188 0.128906 9.605469 -1.886719 9.605469 -4.359375 L 9.605469 -4.65625 L 5.308594 -4.65625 L 5.308594 -3.207031 L 7.527344 -3.207031 C 7.054688 -1.886719 5.976562 -1.617188 5.128906 -1.617188 C 3.746094 -1.617188 2.589844 -2.859375 2.589844 -4.335938 C 2.589844 -5.808594 3.746094 -7.054688 5.128906 -7.054688 Z M 5.128906 -7.054688" transform="translate(9.807 34.46)"/></g></g></g><g><g><g><path d="M 5.820312 -1.742188 L 2.691406 -1.742188 L 2.691406 -3.5 L 5.695312 -3.5 L 5.695312 -5.246094 L 2.691406 -5.246094 L 2.691406 -6.976562 L 5.820312 -6.976562 L 5.820312 -8.71875 L 0.769531 -8.71875 L 0.769531 0 L 5.820312 0 Z M 5.820312 -1.742188" transform="translate(19.86 34.46)"/></g></g></g><g><g><g><path d="M 7.617188 0 L 7.617188 -8.71875 L 5.695312 -8.71875 L 5.695312 -3.28125 L 2.691406 -8.71875 L 0.769531 -8.71875 L 0.769531 0 L 2.691406 0 L 2.691406 -5.4375 L 5.695312 0 Z M 7.617188 0" transform="translate(26.452 34.46)"/></g></g></g><g><g><g><path d="M 7.066406 -2.960938 C 6.707031 -2.191406 5.835938 -1.667969 4.9375 -1.667969 C 3.527344 -1.667969 2.398438 -2.871094 2.398438 -4.359375 C 2.398438 -5.835938 3.527344 -7.054688 4.9375 -7.054688 C 5.820312 -7.054688 6.695312 -6.566406 7.054688 -5.785156 L 9.195312 -5.785156 C 8.605469 -7.566406 6.925781 -8.847656 4.9375 -8.847656 C 2.460938 -8.847656 0.449219 -6.835938 0.449219 -4.359375 C 0.449219 -1.886719 2.460938 0.128906 4.9375 0.128906 C 6.925781 0.128906 8.617188 -1.167969 9.207031 -2.960938 Z M 7.066406 -2.960938" transform="translate(34.838 34.46)"/></g></g></g><g><g><g><path d="M 3.320312 0 L 5.246094 0 L 5.246094 -4.167969 L 8.464844 -8.71875 L 6.167969 -8.71875 L 4.28125 -5.707031 L 2.398438 -8.71875 L 0.101562 -8.71875 L 3.320312 -4.167969 Z M 3.320312 0" transform="translate(44.366 34.46)"/></g></g></g><g><g><g><path d="M 0.984375 -0.320312 C 0.757812 -0.320312 0.566406 -0.433594 0.554688 -0.679688 L 0.0898438 -0.679688 C 0.09375 -0.175781 0.511719 0.046875 0.964844 0.046875 C 1.386719 0.046875 1.824219 -0.128906 1.824219 -0.617188 C 1.824219 -1.402344 0.628906 -1.140625 0.628906 -1.507812 C 0.628906 -1.660156 0.808594 -1.722656 0.9375 -1.722656 C 1.164062 -1.722656 1.289062 -1.652344 1.3125 -1.4375 L 1.753906 -1.4375 C 1.738281 -1.90625 1.355469 -2.097656 0.929688 -2.097656 C 0.554688 -2.097656 0.15625 -1.894531 0.15625 -1.46875 C 0.15625 -0.707031 1.351562 -0.964844 1.351562 -0.566406 C 1.351562 -0.378906 1.128906 -0.320312 0.984375 -0.320312 Z M 0.984375 -0.320312" transform="translate(10.09 40.646)"/></g></g></g><g><g><g><path d="M 1.777344 -1.035156 C 1.777344 -0.71875 1.488281 -0.425781 1.167969 -0.425781 C 0.851562 -0.425781 0.5625 -0.71875 0.5625 -1.035156 C 0.5625 -1.355469 0.851562 -1.644531 1.167969 -1.644531 C 1.488281 -1.644531 1.777344 -1.355469 1.777344 -1.035156 Z M 2.234375 -1.03125 C 2.234375 -1.605469 1.742188 -2.097656 1.167969 -2.097656 C 0.597656 -2.097656 0.105469 -1.605469 0.105469 -1.03125 C 0.105469 -0.460938 0.597656 0.03125 1.167969 0.03125 C 1.742188 0.03125 2.234375 -0.460938 2.234375 -1.03125 Z M 2.234375 -1.03125" transform="translate(12.003 40.646)"/></g></g></g><g><g><g><path d="M 1.675781 -0.703125 C 1.589844 -0.519531 1.382812 -0.394531 1.167969 -0.394531 C 0.835938 -0.394531 0.566406 -0.679688 0.566406 -1.03125 C 0.566406 -1.382812 0.835938 -1.671875 1.167969 -1.671875 C 1.378906 -1.671875 1.585938 -1.554688 1.671875 -1.371094 L 2.179688 -1.371094 C 2.039062 -1.792969 1.640625 -2.097656 1.167969 -2.097656 C 0.582031 -2.097656 0.105469 -1.621094 0.105469 -1.03125 C 0.105469 -0.445312 0.582031 0.03125 1.167969 0.03125 C 1.640625 0.03125 2.042969 -0.277344 2.183594 -0.703125 Z M 1.675781 -0.703125" transform="translate(14.343 40.646)"/></g></g></g><g><g><g><path d="M 0.636719 0 L 0.636719 -2.066406 L 0.183594 -2.066406 L 0.183594 0 Z M 0.636719 0" transform="translate(16.6 40.646)"/></g></g></g><g><g><g><path d="M 1.304688 -0.789062 L 0.785156 -0.789062 L 1.046875 -1.523438 Z M 2.078125 0 L 1.238281 -2.066406 L 0.855469 -2.066406 L 0.015625 0 L 0.503906 0 L 0.652344 -0.417969 L 1.441406 -0.417969 L 1.589844 0 Z M 2.078125 0" transform="translate(17.42 40.646)"/></g></g></g><g><g><g><path d="M 0.183594 0 L 1.378906 0 L 1.378906 -0.414062 L 0.636719 -0.414062 L 0.636719 -2.066406 L 0.183594 -2.066406 Z M 0.183594 0" transform="translate(19.513 40.646)"/></g></g></g><g><g><g><path d="M 2.757812 0 L 2.359375 -2.066406 L 1.816406 -2.066406 L 1.386719 -0.617188 L 0.957031 -2.066406 L 0.417969 -2.066406 L 0.015625 0 L 0.515625 0 L 0.757812 -1.425781 L 1.164062 0 L 1.609375 0 L 2.015625 -1.425781 L 2.257812 0 Z M 2.757812 0" transform="translate(21.758 40.646)"/></g></g></g><g><g><g><path d="M 1.378906 -0.414062 L 0.636719 -0.414062 L 0.636719 -0.828125 L 1.347656 -0.828125 L 1.347656 -1.242188 L 0.636719 -1.242188 L 0.636719 -1.652344 L 1.378906 -1.652344 L 1.378906 -2.066406 L 0.183594 -2.066406 L 0.183594 0 L 1.378906 0 Z M 1.378906 -0.414062" transform="translate(24.532 40.646)"/></g></g></g><g><g><g><path d="M 0.632812 -0.417969 L 0.632812 -1.644531 L 0.769531 -1.644531 C 1.121094 -1.644531 1.359375 -1.375 1.359375 -1.03125 C 1.359375 -0.691406 1.117188 -0.417969 0.769531 -0.417969 Z M 0.183594 -2.066406 L 0.183594 0 L 0.796875 0 C 1.382812 0 1.824219 -0.449219 1.824219 -1.03125 C 1.824219 -1.617188 1.378906 -2.066406 0.796875 -2.066406 Z M 0.183594 -2.066406" transform="translate(26.093 40.646)"/></g></g></g><g><g><g><path d="M 0.636719 0 L 0.636719 -2.066406 L 0.183594 -2.066406 L 0.183594 0 Z M 0.636719 0" transform="translate(28.022 40.646)"/></g></g></g><g><g><g><path d="M 1.304688 -0.789062 L 0.785156 -0.789062 L 1.046875 -1.523438 Z M 2.078125 0 L 1.238281 -2.066406 L 0.855469 -2.066406 L 0.015625 0 L 0.503906 0 L 0.652344 -0.417969 L 1.441406 -0.417969 L 1.589844 0 Z M 2.078125 0" transform="translate(28.843 40.646)"/></g></g></g><g><g><g><path d="M 1.304688 -0.789062 L 0.785156 -0.789062 L 1.046875 -1.523438 Z M 2.078125 0 L 1.238281 -2.066406 L 0.855469 -2.066406 L 0.015625 0 L 0.503906 0 L 0.652344 -0.417969 L 1.441406 -0.417969 L 1.589844 0 Z M 2.078125 0" transform="translate(31.695 40.646)"/></g></g></g><g><g><g><path d="M 1.214844 -1.671875 C 1.414062 -1.671875 1.621094 -1.589844 1.722656 -1.371094 L 2.222656 -1.371094 C 2.082031 -1.796875 1.671875 -2.097656 1.214844 -2.097656 C 0.632812 -2.097656 0.152344 -1.617188 0.152344 -1.03125 C 0.152344 -0.449219 0.632812 0.03125 1.214844 0.03125 C 1.804688 0.03125 2.277344 -0.445312 2.277344 -1.03125 L 2.277344 -1.101562 L 1.257812 -1.101562 L 1.257812 -0.757812 L 1.785156 -0.757812 C 1.671875 -0.445312 1.414062 -0.382812 1.214844 -0.382812 C 0.886719 -0.382812 0.613281 -0.675781 0.613281 -1.027344 C 0.613281 -1.375 0.886719 -1.671875 1.214844 -1.671875 Z M 1.214844 -1.671875" transform="translate(33.788 40.646)"/></g></g></g><g><g><g><path d="M 1.378906 -0.414062 L 0.636719 -0.414062 L 0.636719 -0.828125 L 1.347656 -0.828125 L 1.347656 -1.242188 L 0.636719 -1.242188 L 0.636719 -1.652344 L 1.378906 -1.652344 L 1.378906 -2.066406 L 0.183594 -2.066406 L 0.183594 0 L 1.378906 0 Z M 1.378906 -0.414062" transform="translate(36.17 40.646)"/></g></g></g><g><g><g><path d="M 1.804688 0 L 1.804688 -2.066406 L 1.347656 -2.066406 L 1.347656 -0.777344 L 0.636719 -2.066406 L 0.183594 -2.066406 L 0.183594 0 L 0.636719 0 L 0.636719 -1.289062 L 1.347656 0 Z M 1.804688 0" transform="translate(37.732 40.646)"/></g></g></g><g><g><g><path d="M 1.675781 -0.703125 C 1.589844 -0.519531 1.382812 -0.394531 1.167969 -0.394531 C 0.835938 -0.394531 0.566406 -0.679688 0.566406 -1.03125 C 0.566406 -1.382812 0.835938 -1.671875 1.167969 -1.671875 C 1.378906 -1.671875 1.585938 -1.554688 1.671875 -1.371094 L 2.179688 -1.371094 C 2.039062 -1.792969 1.640625 -2.097656 1.167969 -2.097656 C 0.582031 -2.097656 0.105469 -1.621094 0.105469 -1.03125 C 0.105469 -0.445312 0.582031 0.03125 1.167969 0.03125 C 1.640625 0.03125 2.042969 -0.277344 2.183594 -0.703125 Z M 1.675781 -0.703125" transform="translate(39.718 40.646)"/></g></g></g><g><g><g><path d="M 0.785156 0 L 1.242188 0 L 1.242188 -0.988281 L 2.003906 -2.066406 L 1.460938 -2.066406 L 1.015625 -1.351562 L 0.566406 -2.066406 L 0.0234375 -2.066406 L 0.785156 -0.988281 Z M 0.785156 0" transform="translate(41.976 40.646)"/></g></g></g></svg>